<svg xmlns="http://www.w3.org/2000/svg" width="60.223" height="69.357" viewBox="0 0 60.223 69.357"><defs><style>.a{fill:#ffbca7;}.b{fill:#ff5722;}.c{fill:#fff;}.d{fill:#bf411a;}</style></defs><g transform="translate(2.156 -14.864)"><circle class="a" cx="17.329" cy="17.329" r="17.329" transform="translate(-2.156 32.213)"/><path class="b" d="M129.624,55.756h-4.011V33.461a4.429,4.429,0,0,0-4.429-4.429H95.615a4.429,4.429,0,0,0-4.429,4.429V55.756H87.174a2.531,2.531,0,0,0-2.531,2.532v34a2.531,2.531,0,0,0,2.531,2.531h42.449a2.532,2.532,0,0,0,2.532-2.531v-34A2.532,2.532,0,0,0,129.624,55.756Z" transform="translate(-75.872 -12.384)"/><path class="c" d="M201.576,75.362H185.752a3.564,3.564,0,0,0-3.564,3.565v5.135a3.564,3.564,0,0,0,3.564,3.565h15.824a3.565,3.565,0,0,0,3.565-3.565V78.927A3.565,3.565,0,0,0,201.576,75.362Z" transform="translate(-161.138 -52.882)"/><path class="c" d="M232.986,200.741h-5.038l-5.78,6.97h7.16l-5.012,8.5,10.74-11.277h-6.265Z" transform="translate(-196.085 -162.478)"/><g transform="translate(6.987 14.864)"><path class="d" d="M189.193,77.027H173.369a5.354,5.354,0,0,1-5.348-5.348V66.544a5.354,5.354,0,0,1,5.348-5.348h15.824a5.354,5.354,0,0,1,5.348,5.348v5.135A5.354,5.354,0,0,1,189.193,77.027ZM173.369,64.763a1.783,1.783,0,0,0-1.781,1.781v5.135a1.783,1.783,0,0,0,1.781,1.781h15.824a1.783,1.783,0,0,0,1.782-1.781V66.544a1.783,1.783,0,0,0-1.782-1.781Z" transform="translate(-155.741 -55.363)"/><g transform="translate(14.494 40.833)"><rect class="d" width="6.297" height="6.297"/><rect class="d" width="6.297" height="6.297" transform="translate(0 8.218)"/><rect class="d" width="6.297" height="6.297" transform="translate(0 16.435)"/><g transform="translate(7.897)"><rect class="d" width="6.297" height="6.297"/><rect class="d" width="6.297" height="6.297" transform="translate(0 8.218)"/><rect class="d" width="6.297" height="6.297" transform="translate(0 16.435)"/></g><g transform="translate(15.795)"><rect class="d" width="6.297" height="6.297"/><rect class="d" width="6.297" height="6.297" transform="translate(0 8.218)"/><rect class="d" width="6.297" height="6.297" transform="translate(0 16.435)"/></g></g><path class="d" d="M117.988,64.687V79.906a.749.749,0,0,1-.748.748H74.79a.749.749,0,0,1-.748-.748v-34a.749.749,0,0,1,.748-.748h5.795V21.076a2.649,2.649,0,0,1,2.646-2.645H108.8a2.649,2.649,0,0,1,2.645,2.645V45.155h5.795a.749.749,0,0,1,.748.748V61.12h3.567V45.9a4.32,4.32,0,0,0-4.315-4.315h-2.228V21.076a6.219,6.219,0,0,0-6.212-6.212H83.23a6.219,6.219,0,0,0-6.212,6.212V41.588H74.79A4.32,4.32,0,0,0,70.475,45.9v34a4.32,4.32,0,0,0,4.315,4.315h42.449a4.32,4.32,0,0,0,4.315-4.315V64.687Z" transform="translate(-70.475 -14.864)"/></g></g></svg>